<svg width="84" height="18" viewBox="0 0 84 18" fill="none" xmlns="http://www.w3.org/2000/svg">
<path d="M0 17.9996V-0.000366211H4.08395V14.1653H12V17.9996H0Z" fill="#181818"/>
<path d="M24.0525 15.9204C23.4724 17.1997 22.1547 17.9996 20.5166 17.9996C16.663 17.9996 14 15.0424 14 10.9676C14 7.02651 16.5055 3.99963 20.384 3.99963C22.7348 3.99963 23.7624 5.30682 24.0276 5.91721V4.38705H27.895V15.2571C27.895 16.4806 27.9751 17.3335 28 17.6262H24.1602C24.0885 17.1053 24.0525 16.5801 24.0525 16.0542V15.9204ZM21.0442 14.5045C22.6547 14.5045 24.0276 13.2252 24.0276 10.9899C24.0276 8.69882 22.6823 7.50033 21.0442 7.50033C19.3287 7.50033 18.0359 8.69882 18.0359 10.9899C18.0359 13.1722 19.3867 14.5045 21.0442 14.5045Z" fill="#181818"/>
<path d="M50.0525 15.9204C49.4724 17.1997 48.1547 17.9996 46.5166 17.9996C42.663 17.9996 40 15.0424 40 10.9676C40 7.02651 42.5055 3.99963 46.384 3.99963C48.7348 3.99963 49.7624 5.30682 50.0276 5.91721V4.38705H53.895V15.2571C53.895 16.4806 53.9751 17.3335 54 17.6262H50.1602C50.0885 17.1053 50.0525 16.5801 50.0525 16.0542V15.9204ZM47.0442 14.5045C48.6547 14.5045 50.0276 13.2252 50.0276 10.9899C50.0276 8.69882 48.6823 7.50033 47.0442 7.50033C45.3287 7.50033 44.0359 8.69882 44.0359 10.9899C44.0359 13.1722 45.3867 14.5045 47.0442 14.5045Z" fill="#181818"/>
<path d="M80.0525 15.9204C79.4724 17.1997 78.1547 17.9996 76.5166 17.9996C72.663 17.9996 70 15.0424 70 10.9676C70 7.02651 72.5055 3.99963 76.384 3.99963C78.7348 3.99963 79.7624 5.30682 80.0276 5.91721V4.38705H83.895V15.2571C83.895 16.4806 83.9751 17.3335 84 17.6262H80.1602C80.0885 17.1053 80.0525 16.5801 80.0525 16.0542V15.9204ZM77.0442 14.5045C78.6547 14.5045 80.0276 13.2252 80.0276 10.9899C80.0276 8.69882 78.6823 7.50033 77.0442 7.50033C75.3287 7.50033 74.0359 8.69882 74.0359 10.9899C74.0359 13.1722 75.3867 14.5045 77.0442 14.5045Z" fill="#181818"/>
<path d="M35.6832 5.56548H38V8.83289H35.6832V13.4047C35.6832 14.4132 36.2081 14.6911 36.9953 14.6911C37.3169 14.6855 37.637 14.6441 37.95 14.5676V17.6549C37.8076 17.7295 37.2003 17.9996 36.0656 17.9996C33.6064 17.9996 32.1018 16.4997 32.1018 14.0659V8.83289H30V5.56548H30.5973C31.8469 5.56548 32.4367 4.70361 32.4367 3.57416V1.99963H35.6857L35.6832 5.56548Z" fill="#181818"/>
<path d="M59.9094 17.9996H56V4.35596H59.7694V5.91917C60.464 4.62894 62.0337 3.99963 63.3448 3.99963C66.5596 3.99963 68 6.44216 68 9.43354V17.9996H64.1014V10.1462C64.1014 8.80136 63.4337 7.78699 62.0175 7.78699C60.7332 7.78699 59.9094 8.80136 59.9094 10.1749V17.9996Z" fill="#181818"/>
</svg>
