<svg width="42" height="42" viewBox="0 0 42 42" fill="none" xmlns="http://www.w3.org/2000/svg">
<path d="M6.15094 6.15052C3.21399 9.08738 1.21389 12.8292 0.403555 16.9028C-0.406775 20.9763 0.00906559 25.1987 1.59849 29.036C3.18792 32.8732 5.87954 36.153 9.33298 38.4605C12.7864 40.768 16.8466 41.9996 21 41.9996C25.1534 41.9996 29.2136 40.768 32.667 38.4605C36.1205 36.153 38.8121 32.8732 40.4015 29.036C41.9909 25.1987 42.4068 20.9763 41.5964 16.9028C40.7861 12.8292 38.786 9.08738 35.8491 6.15052C31.9108 2.2124 26.5695 0 21 0C15.4305 0 10.0892 2.2124 6.15094 6.15052ZM28.6661 28.6655C27.1512 30.1808 25.2209 31.2127 23.1195 31.6309C21.018 32.0491 18.8397 31.8347 16.8601 31.0149C14.8805 30.195 13.1884 28.8065 11.998 27.025C10.8075 25.2435 10.1721 23.1489 10.1721 21.0063C10.1721 18.8636 10.8075 16.7691 11.998 14.9876C13.1884 13.206 14.8805 11.8175 16.8601 10.9977C18.8397 10.1778 21.018 9.96344 23.1195 10.3816C25.2209 10.7998 27.1512 11.8318 28.6661 13.347C30.6972 15.3785 31.8383 18.1336 31.8383 21.0063C31.8383 23.879 30.6972 26.634 28.6661 28.6655Z" fill="#4F46E5"/>
</svg>
