<svg width="26" height="28" viewBox="0 0 26 28" fill="none" xmlns="http://www.w3.org/2000/svg">
<path d="M13 14C11.2125 14 9.68229 13.3146 8.40938 11.9437C7.13646 10.5729 6.5 8.925 6.5 7C6.5 5.075 7.13646 3.42708 8.40938 2.05625C9.68229 0.685417 11.2125 0 13 0C14.7875 0 16.3177 0.685417 17.5906 2.05625C18.8635 3.42708 19.5 5.075 19.5 7C19.5 8.925 18.8635 10.5729 17.5906 11.9437C16.3177 13.3146 14.7875 14 13 14ZM22.75 28H3.25C2.35625 28 1.59142 27.6576 0.9555 26.9727C0.3185 26.2868 0 25.4625 0 24.5V23.1C0 22.1083 0.23725 21.1966 0.71175 20.3647C1.18517 19.5341 1.81458 18.9 2.6 18.4625C4.27917 17.5583 5.98542 16.8799 7.71875 16.4272C9.45208 15.9757 11.2125 15.75 13 15.75C14.7875 15.75 16.5479 15.9757 18.2812 16.4272C20.0146 16.8799 21.7208 17.5583 23.4 18.4625C24.1854 18.9 24.8148 19.5341 25.2882 20.3647C25.7628 21.1966 26 22.1083 26 23.1V24.5C26 25.4625 25.682 26.2868 25.0461 26.9727C24.4091 27.6576 23.6437 28 22.75 28ZM3.25 24.5H22.75V23.1C22.75 22.7792 22.6758 22.4875 22.5274 22.225C22.3779 21.9625 22.1812 21.7583 21.9375 21.6125C20.475 20.825 18.999 20.2341 17.5094 19.8398C16.0198 19.4466 14.5167 19.25 13 19.25C11.4833 19.25 9.98021 19.4466 8.49063 19.8398C7.00104 20.2341 5.525 20.825 4.0625 21.6125C3.81875 21.7583 3.62267 21.9625 3.47425 22.225C3.32475 22.4875 3.25 22.7792 3.25 23.1V24.5ZM13 10.5C13.8938 10.5 14.6591 10.157 15.2961 9.471C15.932 8.78617 16.25 7.9625 16.25 7C16.25 6.0375 15.932 5.21383 15.2961 4.529C14.6591 3.843 13.8938 3.5 13 3.5C12.1062 3.5 11.3414 3.843 10.7055 4.529C10.0685 5.21383 9.75 6.0375 9.75 7C9.75 7.9625 10.0685 8.78617 10.7055 9.471C11.3414 10.157 12.1062 10.5 13 10.5Z" fill="black"/>
</svg>
